<svg width="24" height="24" viewBox="0 0 24 24" fill="none" xmlns="http://www.w3.org/2000/svg">
<g clip-path="url(#clip0_140_933)">
<path d="M23.6079 17.013L20.8079 6.91301C20.2453 4.88129 19.0189 3.09628 17.3242 1.84231C15.6295 0.588335 13.564 -0.0624762 11.4565 -0.00646022C9.3491 0.0495557 7.32101 0.809176 5.69532 2.15141C4.06964 3.49363 2.93985 5.34127 2.48593 7.40001L0.320934 17.14C0.239769 17.5055 0.241723 17.8845 0.326651 18.2491C0.411579 18.6138 0.577313 18.9546 0.811618 19.2466C1.04592 19.5386 1.34282 19.7743 1.68038 19.9362C2.01794 20.0981 2.38756 20.1821 2.76193 20.182H6.90493C7.22316 21.2825 7.89037 22.2498 8.80606 22.9383C9.72174 23.6267 10.8363 23.9989 11.9819 23.9989C13.1275 23.9989 14.2421 23.6267 15.1578 22.9383C16.0735 22.2498 16.7407 21.2825 17.0589 20.182H21.1999C21.5853 20.182 21.9655 20.093 22.3108 19.9217C22.6561 19.7505 22.9571 19.5018 23.1903 19.1949C23.4236 18.8881 23.5827 18.5315 23.6553 18.153C23.7279 17.7745 23.7121 17.3844 23.6089 17.013H23.6079ZM3.38493 17.182L5.41493 8.04501C5.72585 6.64108 6.49747 5.3815 7.60698 4.46679C8.71648 3.55208 10.1001 3.03481 11.5375 2.99732C12.975 2.95983 14.3837 3.40428 15.5393 4.25992C16.695 5.11555 17.5313 6.33319 17.9149 7.71901L20.5429 17.182H3.38493Z" fill="#1A2451"/>
</g>
<defs>
<clipPath id="clip0_140_933">
<rect width="24" height="24" fill="white"/>
</clipPath>
</defs>
</svg>
