<svg width="20" height="20" viewBox="0 0 20 20" fill="none" xmlns="http://www.w3.org/2000/svg">
<g clip-path="url(#clip0_202_984)">
<path d="M19.0241 7.64331L15.7916 4.41081C15.6345 4.25901 15.424 4.17501 15.2055 4.17691C14.987 4.17881 14.778 4.26645 14.6234 4.42096C14.4689 4.57546 14.3813 4.78448 14.3794 5.00297C14.3775 5.22147 14.4615 5.43197 14.6133 5.58914L17.8458 8.82164C17.9418 8.91958 18.0258 9.0287 18.0958 9.14664C18.0833 9.14664 18.0733 9.13998 18.0608 9.13998L4.9908 9.16664C4.76979 9.16664 4.55783 9.25444 4.40155 9.41072C4.24527 9.567 4.15747 9.77896 4.15747 9.99998C4.15747 10.221 4.24527 10.433 4.40155 10.5892C4.55783 10.7455 4.76979 10.8333 4.9908 10.8333L18.0558 10.8066C18.0791 10.8066 18.0983 10.795 18.1208 10.7933C18.0469 10.9343 17.9531 11.0639 17.8425 11.1783L14.61 14.4108C14.5304 14.4877 14.4669 14.5796 14.4232 14.6813C14.3795 14.783 14.3565 14.8923 14.3556 15.003C14.3546 15.1136 14.3757 15.2234 14.4176 15.3258C14.4595 15.4282 14.5214 15.5212 14.5996 15.5995C14.6779 15.6777 14.7709 15.7396 14.8733 15.7815C14.9757 15.8234 15.0855 15.8445 15.1961 15.8435C15.3068 15.8426 15.4161 15.8196 15.5178 15.7759C15.6195 15.7322 15.7114 15.6687 15.7883 15.5891L19.0208 12.3566C19.6457 11.7316 19.9967 10.8839 19.9967 9.99998C19.9967 9.1161 19.6457 8.2684 19.0208 7.64331H19.0241Z" fill="#FE4F49"/>
<path d="M5.83333 18.3333H4.16667C3.50363 18.3333 2.86774 18.0699 2.3989 17.6011C1.93006 17.1323 1.66667 16.4964 1.66667 15.8333V4.16667C1.66667 3.50363 1.93006 2.86774 2.3989 2.3989C2.86774 1.93006 3.50363 1.66667 4.16667 1.66667H5.83333C6.05435 1.66667 6.26631 1.57887 6.42259 1.42259C6.57887 1.26631 6.66667 1.05435 6.66667 0.833333C6.66667 0.61232 6.57887 0.400358 6.42259 0.244078C6.26631 0.0877974 6.05435 0 5.83333 0L4.16667 0C3.062 0.00132321 2.00296 0.440735 1.22185 1.22185C0.440735 2.00296 0.00132321 3.062 0 4.16667L0 15.8333C0.00132321 16.938 0.440735 17.997 1.22185 18.7782C2.00296 19.5593 3.062 19.9987 4.16667 20H5.83333C6.05435 20 6.26631 19.9122 6.42259 19.7559C6.57887 19.5996 6.66667 19.3877 6.66667 19.1667C6.66667 18.9457 6.57887 18.7337 6.42259 18.5774C6.26631 18.4211 6.05435 18.3333 5.83333 18.3333Z" fill="#FE4F49"/>
</g>
<defs>
<clipPath id="clip0_202_984">
<rect width="20" height="20" fill="white"/>
</clipPath>
</defs>
</svg>
