<svg width="20" height="20" viewBox="0 0 20 20" fill="none" xmlns="http://www.w3.org/2000/svg">
<g clip-path="url(#clip0_202_981)">
<path d="M10 10C10.9889 10 11.9556 9.70675 12.7779 9.15735C13.6001 8.60794 14.241 7.82705 14.6194 6.91342C14.9978 5.99979 15.0969 4.99445 14.9039 4.02455C14.711 3.05464 14.2348 2.16373 13.5355 1.46447C12.8363 0.765206 11.9454 0.289002 10.9755 0.0960758C10.0055 -0.0968502 9.00021 0.00216643 8.08658 0.380604C7.17295 0.759043 6.39206 1.3999 5.84265 2.22215C5.29324 3.0444 5 4.01109 5 5C5.00132 6.32568 5.52853 7.59668 6.46593 8.53407C7.40332 9.47147 8.67432 9.99868 10 10ZM10 1.66667C10.6593 1.66667 11.3037 1.86216 11.8519 2.22844C12.4001 2.59471 12.8273 3.1153 13.0796 3.72439C13.3319 4.33348 13.3979 5.0037 13.2693 5.6503C13.1407 6.2969 12.8232 6.89085 12.357 7.35702C11.8908 7.8232 11.2969 8.14067 10.6503 8.26928C10.0037 8.3979 9.33348 8.33189 8.72439 8.0796C8.1153 7.82731 7.59471 7.40006 7.22844 6.8519C6.86216 6.30374 6.66667 5.65927 6.66667 5C6.66667 4.11595 7.01786 3.2681 7.64298 2.64298C8.2681 2.01786 9.11595 1.66667 10 1.66667Z" fill="#597EF7"/>
<path d="M10 11.6667C8.01155 11.6689 6.10518 12.4598 4.69913 13.8658C3.29309 15.2719 2.50221 17.1782 2.5 19.1667C2.5 19.3877 2.5878 19.5997 2.74408 19.7559C2.90036 19.9122 3.11232 20 3.33333 20C3.55435 20 3.76631 19.9122 3.92259 19.7559C4.07887 19.5997 4.16667 19.3877 4.16667 19.1667C4.16667 17.6196 4.78125 16.1359 5.87521 15.0419C6.96917 13.9479 8.4529 13.3334 10 13.3334C11.5471 13.3334 13.0308 13.9479 14.1248 15.0419C15.2187 16.1359 15.8333 17.6196 15.8333 19.1667C15.8333 19.3877 15.9211 19.5997 16.0774 19.7559C16.2337 19.9122 16.4456 20 16.6667 20C16.8877 20 17.0996 19.9122 17.2559 19.7559C17.4122 19.5997 17.5 19.3877 17.5 19.1667C17.4978 17.1782 16.7069 15.2719 15.3009 13.8658C13.8948 12.4598 11.9884 11.6689 10 11.6667Z" fill="#597EF7"/>
</g>
<defs>
<clipPath id="clip0_202_981">
<rect width="20" height="20" fill="white"/>
</clipPath>
</defs>
</svg>
